HIERARCHY
ROOT Pelvis
{
	OFFSET 0.000000 0.000000 0.000000
	CHANNELS 6 Xposition Yposition Zposition Xrotation Yrotation Zrotation
	JOINT LeftUpLeg_virtual
	{
		OFFSET 0.000000 0.000000 0.000000
		CHANNELS 3 Xrotation Yrotation Zrotation
		JOINT LeftUpLeg
		{
			OFFSET 18.735201 -5.666702 -4.541200
			CHANNELS 3 Xrotation Yrotation Zrotation
			JOINT LeftLeg
			{
				OFFSET -0.021200 -31.938179 0.493100
				CHANNELS 3 Xrotation Yrotation Zrotation
				JOINT LeftFoot
				{
					OFFSET 0.021200 -31.938179 -4.336299
					CHANNELS 3 Xrotation Yrotation Zrotation
					JOINT LeftToeBase
					{
						OFFSET 0.943001 -26.722000 15.023500
						CHANNELS 3 Xrotation Yrotation Zrotation
						End Site
						{
							OFFSET 0 0 0
						}
					}
				}
			}
		}
	}
	JOINT RightUpLeg_virtual
	{
		OFFSET 0.000000 0.000000 0.000000
		CHANNELS 3 Xrotation Yrotation Zrotation
		JOINT RightUpLeg
		{
			OFFSET -18.735201 -5.666702 -4.541200
			CHANNELS 3 Xrotation Yrotation Zrotation
			JOINT RightLeg
			{
				OFFSET 0.018946 -31.938133 0.493100
				CHANNELS 3 Xrotation Yrotation Zrotation
				JOINT RightFoot
				{
					OFFSET -0.018946 -31.938126 -4.336299
					CHANNELS 3 Xrotation Yrotation Zrotation
					JOINT RightToeBase
					{
						OFFSET -0.943001 -26.722004 15.023500
						CHANNELS 3 Xrotation Yrotation Zrotation
						End Site
						{
							OFFSET 0 0 0
						}
					}
				}
			}
		}
	}
	JOINT Hips_virtual
	{
		OFFSET 0.000000 0.000000 0.000000
		CHANNELS 3 Xrotation Yrotation Zrotation
		JOINT Hips
		{
			OFFSET -0.000000 -0.000000 -0.000000
			CHANNELS 3 Xrotation Yrotation Zrotation
			JOINT Spine
			{
				OFFSET 0.000000 10.199997 -0.299500
				CHANNELS 3 Xrotation Yrotation Zrotation
				JOINT Spine1
				{
					OFFSET 0.000000 11.900002 -1.516600
					CHANNELS 3 Xrotation Yrotation Zrotation
					JOINT Spine2
					{
						OFFSET 0.000000 13.600006 -2.842500
						CHANNELS 3 Xrotation Yrotation Zrotation
						JOINT Neck_virtual
						{
							OFFSET 0.000000 0.000000 0.000000
							CHANNELS 3 Xrotation Yrotation Zrotation
							JOINT Neck
							{
								OFFSET 0.000000 9.624100 -2.890100
								CHANNELS 3 Xrotation Yrotation Zrotation
								JOINT Head
								{
									OFFSET 0.000000 14.068802 -1.351900
									CHANNELS 3 Xrotation Yrotation Zrotation
									End Site
									{
										OFFSET 0 0 0
									}
								}
							}
						}
						JOINT LeftShoulder_virtual
						{
							OFFSET 0.000000 0.000000 0.000000
							CHANNELS 3 Xrotation Yrotation Zrotation
							JOINT LeftShoulder
							{
								OFFSET 15.263000 10.923401 -0.547700
								CHANNELS 3 Xrotation Yrotation Zrotation
								JOINT LeftArm
								{
									OFFSET 25.438599 -2.830597 -13.032500
									CHANNELS 3 Xrotation Yrotation Zrotation
									JOINT LeftForeArm
									{
										OFFSET 29.960503 0.000000 0.000000
										CHANNELS 3 Xrotation Yrotation Zrotation
										JOINT LeftHand
										{
											OFFSET 27.849251 0.000000 0.000000
											CHANNELS 3 Xrotation Yrotation Zrotation
											End Site
											{
												OFFSET 0 0 0
											}
										}
									}
								}
							}
						}
						JOINT RightShoulder_virtual
						{
							OFFSET 0.000000 0.000000 0.000000
							CHANNELS 3 Xrotation Yrotation Zrotation
							JOINT RightShoulder
							{
								OFFSET -15.263000 10.923401 -0.547700
								CHANNELS 3 Xrotation Yrotation Zrotation
								JOINT RightArm
								{
									OFFSET -25.438599 -2.830597 -13.032500
									CHANNELS 3 Xrotation Yrotation Zrotation
									JOINT RightForeArm
									{
										OFFSET -29.960503 0.000000 0.000000
										CHANNELS 3 Xrotation Yrotation Zrotation
										JOINT RightHand
										{
											OFFSET -27.849251 0.000000 0.000000
											CHANNELS 3 Xrotation Yrotation Zrotation
											End Site
											{
												OFFSET 0 0 0
											}
										}
									}
								}
							}
						}
					}
				}
			}
		}
	}
}
MOTION
Frames: 12
Frame Time: 0.03333333
-0.992546 91.193176 2.213707 0.000000 0.000000 0.000000 -23.094741 -5.673357 -1.488115 -103.045821 -0.962480 32.040349 129.661374 -21.804450 -0.182262 -21.441916 -1.429361 8.538975 0.000000 0.000000 0.000000 -23.094741 -5.673357 -1.488115 -123.064764 7.403910 -35.152057 131.578540 23.211372 -1.435574 -9.785956 -1.808688 6.483646 0.000000 0.000000 0.000000 -23.094741 -5.673357 -1.488115 -0.000001 0.000000 0.000000 7.682409 -0.983205 -0.704551 15.374081 -1.676405 -0.551058 0.000000 0.000000 0.000000 15.374078 -1.676406 -0.551058 -2.358228 0.515285 0.060648 0.000000 0.000000 0.000000 15.374078 -1.676406 -0.551058 -0.117973 -1.799431 36.289437 -52.783217 -25.523891 -11.661695 -14.599478 -27.801838 2.187906 0.000000 0.000000 0.000000 15.374078 -1.676406 -0.551058 9.813670 24.196317 -37.946062 -46.242184 23.161322 -4.673683 -22.075477 26.224112 3.020026 0.000000 0.000000 0.000000 
-1.051380 90.711639 2.292843 0.000000 0.000000 0.000000 -22.412402 -5.613459 -1.497277 -104.445484 -1.493843 31.436246 130.254740 -21.317818 -0.174947 -21.735296 -1.248284 8.176308 0.000000 0.000000 0.000000 -22.412402 -5.613459 -1.497277 -123.931651 7.836342 -34.130500 131.852991 23.221815 -1.382515 -10.566637 -2.088167 7.146721 0.000000 0.000000 0.000000 -22.412402 -5.613459 -1.497277 0.000003 0.000000 0.000000 7.515034 -0.931605 -0.636081 15.039634 -1.534572 -0.418302 0.000000 0.000000 0.000000 15.039639 -1.534572 -0.418302 -3.549975 0.559651 0.090068 0.000000 0.000000 0.000000 15.039639 -1.534572 -0.418302 -0.794090 -0.411284 37.037640 -53.107361 -25.119651 -13.105109 -14.758150 -28.996680 2.732947 0.000000 0.000000 0.000000 15.039639 -1.534572 -0.418302 9.273473 22.311028 -38.387897 -46.870899 23.501726 -2.942165 -21.212578 27.007449 1.920320 0.000000 0.000000 0.000000 
-1.090219 90.557396 2.290447 0.000000 0.000000 0.000000 -21.402657 -5.537866 -1.586894 -106.377198 -1.711047 30.649668 130.388339 -20.210115 -0.087265 -20.779566 -1.081754 8.069646 0.000000 0.000000 0.000000 -21.402657 -5.537866 -1.586894 -125.074124 7.769493 -32.920993 131.719365 22.461738 -1.380079 -10.339065 -2.213171 7.428906 0.000000 0.000000 0.000000 -21.402657 -5.537866 -1.586894 0.000000 0.000000 0.000000 7.132185 -0.883235 -0.526429 14.274076 -1.394823 -0.228714 0.000000 0.000000 0.000000 14.274073 -1.394825 -0.228715 -4.714208 0.605352 0.173150 0.000000 0.000000 0.000000 14.274073 -1.394825 -0.228715 -1.351301 0.585397 37.896560 -54.106303 -24.664006 -16.084366 -14.545352 -29.884185 3.360775 0.000000 0.000000 0.000000 14.274073 -1.394825 -0.228715 8.659215 20.554170 -38.660756 -48.041119 24.002540 0.198535 -20.014602 28.209933 0.737834 0.000000 0.000000 0.000000 
-1.119236 90.889336 2.193298 0.000000 0.000000 0.000000 -20.335930 -5.517869 -1.830515 -108.641993 -1.632012 29.794255 129.752885 -18.391408 0.107300 -17.664310 -0.863585 8.159615 0.000000 0.000000 0.000000 -20.335930 -5.517869 -1.830515 -126.328570 6.932164 -31.545160 130.996335 20.599832 -1.511430 -8.388371 -2.091420 7.308098 0.000000 0.000000 0.000000 -20.335930 -5.517869 -1.830515 0.000001 0.000000 0.000000 6.585667 -0.841713 -0.363365 13.181099 -1.275150 0.029298 0.000000 0.000000 0.000000 13.181098 -1.275146 0.029298 -5.697956 0.633105 0.286249 0.000000 0.000000 0.000000 13.181098 -1.275146 0.029298 -1.573339 0.806856 38.796875 -55.559870 -23.610608 -20.463433 -13.992641 -30.797022 4.188665 0.000000 0.000000 0.000000 13.181098 -1.275146 0.029298 8.245026 19.384437 -38.889881 -49.481237 24.303611 4.418808 -18.794239 29.794125 -0.558960 0.000000 0.000000 0.000000 
-1.136588 91.913666 1.931887 0.000000 0.000000 0.000000 -20.062397 -5.583808 -2.302251 -109.873244 -1.272712 29.172889 127.924430 -16.249150 0.363308 -12.180433 -0.588505 8.384476 0.000000 0.000000 0.000000 -20.062397 -5.583808 -2.302251 -126.388908 5.241005 -30.322273 129.396459 17.875483 -1.756091 -4.635993 -1.724537 6.822406 0.000000 0.000000 0.000000 -20.062397 -5.583808 -2.302251 0.000000 0.000000 0.000000 6.160894 -0.800319 -0.159120 12.331300 -1.188794 0.330882 0.000000 0.000000 0.000000 12.331292 -1.188789 0.330881 -6.324307 0.618275 0.388923 0.000000 0.000000 0.000000 12.331292 -1.188789 0.330881 -1.275761 0.062680 39.435129 -56.937007 -21.631105 -25.178331 -13.343855 -32.183821 5.250932 0.000000 0.000000 0.000000 12.331292 -1.188789 0.330881 8.219827 19.112903 -39.109889 -50.738607 24.159322 8.711657 -17.936835 31.430816 -1.919366 0.000000 0.000000 0.000000 
-1.043649 93.813454 1.388039 0.000000 0.000000 0.000000 -21.678660 -5.661560 -3.013534 -107.945163 -0.426390 29.064583 124.694365 -14.307059 0.592004 -5.488369 -0.346423 8.753758 0.000000 0.000000 0.000000 -21.678660 -5.661560 -3.013534 -123.079025 3.117691 -29.703895 126.638537 15.324047 -1.930041 -0.091499 -1.294896 6.212101 0.000000 0.000000 0.000000 -21.678660 -5.661560 -3.013534 -0.000001 0.000000 0.000000 6.308739 -0.749609 0.036858 12.626646 -1.129671 0.613264 0.000000 0.000000 0.000000 12.626650 -1.129671 0.613263 -6.494660 0.557097 0.448011 0.000000 0.000000 0.000000 12.626650 -1.129671 0.613263 -0.516016 -1.365469 39.257882 -57.919348 -19.070482 -28.772367 -12.790881 -34.687857 6.600262 0.000000 0.000000 0.000000 12.626650 -1.129671 0.613263 8.437773 19.559375 -39.055295 -51.660733 23.779804 11.868921 -17.479994 32.931074 -3.320786 0.000000 0.000000 0.000000 
-0.747515 96.732536 0.372978 0.000000 0.000000 0.000000 -25.655036 -5.622700 -3.909222 -101.598777 1.251616 29.421173 119.910856 -12.731777 0.774316 1.089188 -0.134083 9.240280 0.000000 0.000000 0.000000 -25.655036 -5.622700 -3.909222 -115.109342 0.699410 -29.732411 122.395337 13.662865 -1.945422 4.195670 -1.015748 5.653398 0.000000 0.000000 0.000000 -25.655036 -5.622700 -3.909222 -0.000001 0.000001 0.000000 7.332596 -0.684678 0.183885 14.673838 -1.076008 0.818298 0.000000 0.000000 0.000000 14.673845 -1.076012 0.818299 -6.238860 0.478596 0.461399 0.000000 0.000000 0.000000 14.673845 -1.076012 0.818299 0.349715 -2.840395 37.692966 -58.946595 -16.925555 -30.604753 -12.214875 -38.578001 8.350512 0.000000 0.000000 0.000000 14.673845 -1.076012 0.818299 8.450936 20.232854 -38.178415 -52.703761 23.830569 13.355973 -17.176662 34.347901 -4.788402 0.000000 0.000000 0.000000 
-0.348489 100.808525 -1.345615 0.000000 0.000000 0.000000 -31.365567 -5.410927 -4.900459 -91.039632 3.963032 29.904197 112.827895 -11.686133 0.971722 7.259706 0.202433 9.633827 0.000000 0.000000 0.000000 -31.365567 -5.410927 -4.900459 -103.150166 -2.838592 -29.831066 116.024205 12.554452 -2.082299 8.219415 -0.952047 4.915680 0.000000 0.000000 0.000000 -31.365567 -5.410927 -4.900459 -0.000002 0.000000 0.000000 9.150260 -0.611280 0.286893 18.308192 -1.011843 0.932749 0.000000 0.000000 0.000000 18.308194 -1.011845 0.932750 -5.664692 0.412122 0.439816 0.000000 0.000000 0.000000 18.308194 -1.011845 0.932750 0.920393 -3.760773 34.485082 -60.840060 -16.273588 -31.318569 -11.269942 -43.196036 10.631750 0.000000 0.000000 0.000000 18.308194 -1.011845 0.932750 7.987833 20.978561 -36.039022 -54.390760 24.929241 13.385026 -17.024566 35.667941 -6.156537 0.000000 0.000000 0.000000 
0.082449 105.993965 -3.601326 0.000000 0.000000 0.000000 -37.426773 -5.096888 -5.864887 -77.700881 7.723544 29.973875 102.570126 -11.317576 1.199605 13.660818 0.687727 9.662092 0.000000 0.000000 0.000000 -37.426773 -5.096888 -5.864887 -89.352384 -7.629941 -29.277456 107.106280 11.685946 -2.618958 13.004921 -0.964539 3.911305 0.000000 0.000000 0.000000 -37.426773 -5.096888 -5.864887 -0.000002 -0.000001 -0.000000 11.329317 -0.550618 0.360635 22.665161 -0.942749 0.994058 0.000000 0.000000 0.000000 22.665179 -0.942751 0.994058 -4.873284 0.343603 0.364942 0.000000 0.000000 0.000000 22.665179 -0.942751 0.994058 1.102652 -3.935424 29.877355 -63.981592 -17.386609 -32.467396 -9.460644 -47.470081 13.619819 0.000000 0.000000 0.000000 22.665179 -0.942751 0.994058 7.324992 22.385798 -32.659485 -56.528415 27.027323 12.347754 -17.130958 36.973207 -7.010552 0.000000 0.000000 0.000000 
0.474458 112.159088 -6.005497 0.000000 0.000000 0.000000 -42.216849 -4.820114 -6.674706 -63.165316 12.112440 29.003732 88.215431 -11.752361 1.278427 21.199825 1.020451 8.733159 0.000000 0.000000 0.000000 -42.216849 -4.820114 -6.674706 -75.217527 -12.802198 -27.520482 95.262171 11.229342 -3.206168 19.129172 -0.825842 3.064936 0.000000 0.000000 0.000000 -42.216849 -4.820114 -6.674706 0.000002 0.000000 0.000000 13.266737 -0.513668 0.426672 26.539298 -0.881951 1.054945 0.000000 0.000000 0.000000 26.539298 -0.881951 1.054945 -3.932939 0.219623 0.181703 0.000000 0.000000 0.000000 26.539298 -0.881951 1.054945 1.166260 -3.781439 24.469047 -67.955219 -19.305169 -35.376934 -6.211252 -50.793743 17.417317 0.000000 0.000000 0.000000 26.539298 -0.881951 1.054945 6.866186 25.337101 -28.344221 -58.160686 29.117172 10.698278 -16.857913 39.001797 -7.215262 0.000000 0.000000 0.000000 
0.787704 119.156883 -8.117584 0.000000 0.000000 0.000000 -44.025159 -4.678692 -7.182517 -48.976148 16.352111 26.325181 69.599027 -12.697547 0.992702 30.052498 0.858295 6.435872 0.000000 0.000000 0.000000 -44.025159 -4.678692 -7.182517 -61.001608 -16.700369 -24.040562 79.907824 11.333494 -2.804338 26.073537 -0.543773 3.599609 0.000000 0.000000 0.000000 -44.025159 -4.678692 -7.182517 -0.000001 0.000000 0.000000 14.316008 -0.489407 0.487047 28.637260 -0.823164 1.126181 0.000000 0.000000 0.000000 28.637245 -0.823163 1.126181 -2.928508 0.003358 -0.147001 0.000000 0.000000 0.000000 28.637245 -0.823163 1.126181 1.471812 -4.244510 18.877857 -71.434367 -20.459630 -39.917101 -0.796492 -53.501459 22.207209 0.000000 0.000000 0.000000 28.637245 -0.823163 1.126181 6.355199 29.789296 -23.132174 -58.586166 29.467133 10.008165 -14.712478 43.210717 -7.601786 0.000000 0.000000 0.000000 
0.993795 126.800774 -9.505959 0.000000 0.000000 0.000000 -41.327429 -4.671291 -7.221051 -36.867066 19.439854 21.717869 48.169629 -13.784888 0.395590 39.346415 0.561636 3.252807 0.000000 0.000000 0.000000 -41.327429 -4.671291 -7.221051 -47.208543 -17.913278 -18.888953 60.588983 11.191665 -0.861621 33.190235 -0.575615 6.447564 0.000000 0.000000 0.000000 -41.327429 -4.671291 -7.221051 0.000003 0.000000 0.000000 13.921033 -0.464803 0.492129 27.847212 -0.750996 1.159238 0.000000 0.000000 0.000000 27.847224 -0.750999 1.159242 -2.010368 -0.278401 -0.572145 0.000000 0.000000 0.000000 27.847224 -0.750999 1.159242 2.167941 -6.327401 13.531847 -72.056105 -19.547308 -44.528561 8.350400 -56.844840 29.501646 0.000000 0.000000 0.000000 27.847224 -0.750999 1.159242 4.818003 33.928702 -16.666522 -58.004364 26.510242 13.327529 -9.350213 50.269820 -9.987581 0.000000 0.000000 0.000000 
